<svg xmlns="http://www.w3.org/2000/svg" xml:space="preserve" overflow="visible" viewBox="0 0 340 570"><g><path fill="#f7a835" d="M283 282.5h56.6v56.6H283zM226.4 282.5h56.6v56.6h-56.6zM169.8 565.2h56.6v56.6h-56.6zM169.8 282.5h56.6v56.6h-56.6zM169.8 0h56.6v56.3H169.8zM113.2 508.7h56.6v56.6h-56.6zM113.2 282.5h56.6v56.6h-56.6zM113.2 56.2h56.6v56.6h-56.6zM56.6 452.1h56.6v56.6H56.6zM56.6 282.5h56.6v56.6H56.6zM56.6 112.8h56.6v56.6H56.6zM0 395.6h56.6v56.6H0zM0 282.5h56.6v56.6H0zM0 169.3h56.6v56.6H0z"/></g></svg>