<svg xmlns="http://www.w3.org/2000/svg" xml:space="preserve" viewBox="0 0 816.6 81.3"><g><rect x="807.5" y="25.6" fill="#F7A835" width="5" height="5"/><rect x="802.4" y="25.6" fill="#F7A835" width="5" height="5"/><rect x="797.4" y="50.7" fill="#F7A835" width="5" height="5"/><rect x="797.4" y="25.6" fill="#F7A835" width="5" height="5"/><rect x="797.4" y="0.4" fill="#F7A835" width="5" height="5"/><rect x="792.4" y="45.7" fill="#F7A835" width="5" height="5"/><rect x="792.4" y="25.6" fill="#F7A835" width="5" height="5"/><rect x="792.4" y="5.4" fill="#F7A835" width="5" height="5"/><rect x="787.3" y="40.7" fill="#F7A835" width="5" height="5"/><rect x="787.3" y="25.6" fill="#F7A835" width="5" height="5"/><rect x="787.3" y="10.4" fill="#F7A835" width="5" height="5"/><rect x="782.3" y="35.6" fill="#F7A835" width="5" height="5"/><rect x="782.3" y="25.6" fill="#F7A835" width="5" height="5"/><rect x="782.3" y="15.5" fill="#F7A835" width="5" height="5"/><rect x="772.3" y="30.6" fill="#FFFFFF" width="5" height="5"/><rect x="772.3" y="25.6" fill="#FFFFFF" width="5" height="5"/><rect x="767.2" y="35.6" fill="#FFFFFF" width="5" height="5"/><rect x="767.2" y="20.5" fill="#FFFFFF" width="5" height="5"/><rect x="762.2" y="35.6" fill="#FFFFFF" width="5" height="5"/><rect x="762.2" y="20.5" fill="#FFFFFF" width="5" height="5"/><rect x="757.1" y="35.6" fill="#FFFFFF" width="5" height="5"/><rect x="757.1" y="20.5" fill="#FFFFFF" width="5" height="5"/><rect x="752.1" y="35.6" fill="#FFFFFF" width="5" height="5"/><rect x="752.1" y="20.5" fill="#FFFFFF" width="5" height="5"/><rect x="747.1" y="45.7" fill="#FFFFFF" width="5" height="5"/><rect x="747.1" y="40.7" fill="#FFFFFF" width="5" height="5"/><rect x="747.1" y="35.6" fill="#FFFFFF" width="5" height="5"/><rect x="747.1" y="20.5" fill="#FFFFFF" width="5" height="5"/><rect x="742" y="60.8" fill="#FFFFFF" width="5" height="5"/><rect x="742" y="55.8" fill="#FFFFFF" width="5" height="5"/><rect x="742" y="50.7" fill="#FFFFFF" width="5" height="5"/><rect x="742" y="35.6" fill="#FFFFFF" width="5" height="5"/><rect x="742" y="20.5" fill="#FFFFFF" width="5" height="5"/><rect x="737" y="70.9" fill="#FFFFFF" width="5" height="5"/><rect x="737" y="65.8" fill="#FFFFFF" width="5" height="5"/><rect x="737" y="50.7" fill="#FFFFFF" width="5" height="5"/><rect x="737" y="35.6" fill="#FFFFFF" width="5" height="5"/><rect x="737" y="20.5" fill="#FFFFFF" width="5" height="5"/><rect x="732" y="75.9" fill="#FFFFFF" width="5" height="5"/><rect x="732" y="65.8" fill="#FFFFFF" width="5" height="5"/><rect x="732" y="50.7" fill="#FFFFFF" width="5" height="5"/><rect x="732" y="35.6" fill="#FFFFFF" width="5" height="5"/><rect x="732" y="20.5" fill="#FFFFFF" width="5" height="5"/><rect x="726.9" y="75.9" fill="#FFFFFF" width="5" height="5"/><rect x="726.9" y="65.8" fill="#FFFFFF" width="5" height="5"/><rect x="726.9" y="50.7" fill="#FFFFFF" width="5" height="5"/><rect x="726.9" y="35.6" fill="#FFFFFF" width="5" height="5"/><rect x="726.9" y="20.5" fill="#FFFFFF" width="5" height="5"/><rect x="721.9" y="75.9" fill="#FFFFFF" width="5" height="5"/><rect x="721.9" y="65.8" fill="#FFFFFF" width="5" height="5"/><rect x="721.9" y="50.7" fill="#FFFFFF" width="5" height="5"/><rect x="721.9" y="35.6" fill="#FFFFFF" width="5" height="5"/><rect x="721.9" y="20.5" fill="#FFFFFF" width="5" height="5"/><rect x="721.9" y="10.4" fill="#FFFFFF" width="5" height="5"/><rect x="721.9" y="5.4" fill="#FFFFFF" width="5" height="5"/><rect x="721.9" y="0.4" fill="#FFFFFF" width="5" height="5"/><rect x="716.9" y="75.9" fill="#FFFFFF" width="5" height="5"/><rect x="716.9" y="20.5" fill="#FFFFFF" width="5" height="5"/><rect x="716.9" y="15.5" fill="#FFFFFF" width="5" height="5"/><rect x="716.9" y="0.4" fill="#FFFFFF" width="5" height="5"/><rect x="711.8" y="75.9" fill="#FFFFFF" width="5" height="5"/><rect x="711.8" y="20.5" fill="#FFFFFF" width="5" height="5"/><rect x="711.8" y="0.4" fill="#FFFFFF" width="5" height="5"/><rect x="706.8" y="75.9" fill="#FFFFFF" width="5" height="5"/><rect x="706.8" y="5.4" fill="#FFFFFF" width="5" height="5"/><rect x="701.8" y="75.9" fill="#FFFFFF" width="5" height="5"/><rect x="701.8" y="10.4" fill="#FFFFFF" width="5" height="5"/><rect x="696.7" y="75.9" fill="#FFFFFF" width="5" height="5"/><rect x="696.7" y="10.4" fill="#FFFFFF" width="5" height="5"/><rect x="691.7" y="70.9" fill="#FFFFFF" width="5" height="5"/><rect x="691.7" y="15.5" fill="#FFFFFF" width="5" height="5"/><rect x="686.7" y="70.9" fill="#FFFFFF" width="5" height="5"/><rect x="686.7" y="15.5" fill="#FFFFFF" width="5" height="5"/><rect x="681.7" y="70.9" fill="#FFFFFF" width="5" height="5"/><rect x="681.7" y="20.5" fill="#FFFFFF" width="5" height="5"/><rect x="676.6" y="70.9" fill="#FFFFFF" width="5" height="5"/><rect x="676.6" y="60.8" fill="#FFFFFF" width="5" height="5"/><rect x="676.6" y="55.8" fill="#FFFFFF" width="5" height="5"/><rect x="676.6" y="50.7" fill="#FFFFFF" width="5" height="5"/><rect x="676.6" y="45.7" fill="#FFFFFF" width="5" height="5"/><rect x="676.6" y="40.7" fill="#FFFFFF" width="5" height="5"/><rect x="676.6" y="35.6" fill="#FFFFFF" width="5" height="5"/><rect x="676.6" y="65.8" fill="#FFFFFF" width="5" height="5"/><rect x="676.6" y="30.6" fill="#FFFFFF" width="5" height="5"/><rect x="676.6" y="25.6" fill="#FFFFFF" width="5" height="5"/><rect x="676.6" y="20.5" fill="#FFFFFF" width="5" height="5"/><rect x="671.6" y="65.8" fill="#FFFFFF" width="5" height="5"/><rect x="671.6" y="25.6" fill="#FFFFFF" width="5" height="5"/><rect x="666.6" y="65.8" fill="#FFFFFF" width="5" height="5"/><rect x="666.6" y="25.6" fill="#FFFFFF" width="5" height="5"/><rect x="661.5" y="60.8" fill="#FFFFFF" width="5" height="5"/><rect x="661.5" y="55.8" fill="#FFFFFF" width="5" height="5"/><rect x="661.5" y="50.7" fill="#FFFFFF" width="5" height="5"/><rect x="661.5" y="45.7" fill="#FFFFFF" width="5" height="5"/><rect x="661.5" y="40.7" fill="#FFFFFF" width="5" height="5"/><rect x="661.5" y="35.6" fill="#FFFFFF" width="5" height="5"/><rect x="661.5" y="30.6" fill="#FFFFFF" width="5" height="5"/><polygon fill="#FFFFFF" points="64.5,70.9 64.5,75.9 44.3,75.9 44.3,70.9 49.4,70.9 49.4,45.7 19.2,45.7 19.2,70.9 24.2,70.9 24.2,75.9 4.1,75.9 4.1,70.9 9.1,70.9 9.1,10.5 4.1,10.5 4.1,5.4 24.2,5.4 24.2,10.5 19.2,10.5 19.2,40.7 49.4,40.7 49.4,10.5 44.3,10.5 44.3,5.4 64.5,5.4 64.5,10.5 59.4,10.5 59.4,70.9"/><path fill="#FFFFFF" d="M94.7,70.9v5H74.6v-5h-5V55.8h5v-5h10.1v5h-5v10.1h5v5H94.7z M104.7,30.6H84.6v10.1H74.6V30.6h5v-5h25.2L104.7,30.6L104.7,30.6z M119.8,70.9v5h-15.1V65.8h-5v-5h5V50.7H84.6v-5h20.1V30.6h5v5h5v35.2L119.8,70.9L119.8,70.9z M94.7,65.8h5v5h-5V65.8z"/><path fill="#FFFFFF" d="M145,40.7v5h-5v25.2h5v5h-20.1v-5h5V35.6h-5v-5H135v-5h5v15.1H145L145,40.7z M145,35.6h5v5h-5V35.6z M150.1,30.6h5v5h-5V30.6z M180.3,70.9v5h-20.1v-5h5V30.6h-10.1v-5h15.1v5h5v40.3H180.3L180.3,70.9z"/><path fill="#FFFFFF" d="M215.5,75.9h-20.1v-5h-5v-5h-5V35.6h5v-5h5v-5h20.1v5h-15.1v5h-5v30.2h5v5h15.1V75.9z M215.5,30.6h5v5h-5V30.6z M215.5,65.8h5v5h-5V65.8z M240.7,70.9v5h-15.1V65.8h-5v-5h5V40.7h-5v-5h5V15.5h-5v-5h15.1v60.4H240.7z"/><path fill="#FFFFFF" d="M387.3,65.8v10.1h-10.1V65.8h-5V50.7h-5V35.7h-5V20.6h-5v50.3h5v5H347v-5h5V10.5h-5v-5h20.1v15.1h5v15.1h5v15.1h5v15.1L387.3,65.8L387.3,65.8z M392.3,65.8h-5V50.7h5V65.8z M397.3,50.7h-5V35.7h5V50.7z M402.4,35.7h-5V20.6h5V35.7z M422.5,70.9v5h-20.1v-5h5V20.6h-5V5.5h20.1v5h-5v60.4L422.5,70.9L422.5,70.9z"/><path fill="#FFFFFF" d="M477.9,35.6v30.2h-5v5h-5v5h-30.2v-5h-5v-5h-5V35.6h5v-5h5v-5h30.2v5h5v5H477.9z M467.9,65.8V35.6h-5v-5h-20.1v5h-5v30.2h5v5h20.1v-5H467.9z"/><path fill="#FFFFFF" d="M510.6,70.9v5h-15.1v-5h-5V30.6h-5v-5h15.1v45.3L510.6,70.9L510.6,70.9z M510.6,65.8h5v5h-5V65.8z M515.6,60.8h5v5h-5V60.8z M540.8,70.9v5h-15.1V60.8h-5v-5h5V30.6h-5v-5h15.1v45.3H540.8z M545.8,70.9h-5v-5h5V70.9z"/><path fill="#FFFFFF" d="M581,30.6h-20.1v10.1h5v5H576v5h10.1v5h5v15.1h-5v5h-25.2v-5H581V60.8h-5v-5h-10.1v-5h-10.1v-5h-5V30.6h5v-5H581V30.6L581,30.6z M560.9,65.8v5h-5v5h-5V60.8h5v5L560.9,65.8L560.9,65.8z M591.1,25.6v15.1h-5v-5h-5v-5h5v-5L591.1,25.6L591.1,25.6z"/><path fill="#FFFFFF" d="M641.4,30.6v-5h-30.2v5h-5v5h-5v30.2h5v5h5v5h30.2v-5h-25.2v-5h-5V50.7h30.2v-5h5V30.6H641.4z M637.3,45.7h-25.2V35.6h5v-5h20.1L637.3,45.7L637.3,45.7z"/><rect x="641.4" y="65.8" fill="#FFFFFF" width="5" height="5"/><path fill="#FFFFFF" d="M296,20.5h5v-5h-5V20.5z M250.8,5.4v10.1h5v-5h15.1v15.1h-5v20.1h-5v15.1h-5v10.1h-5v5h20.1v-5h-5V60.8h5V45.7h5V25.6h5V10.5h20.1v5h5V5.4H250.8L250.8,5.4z"/><rect x="245.7" y="15.5" fill="#FFFFFF" width="5" height="5"/><rect x="301.1" y="5.5" fill="#FFFFFF" width="5" height="5"/><path fill="#FFFFFF" d="M321.7,75.9h-20.1v-5h-5v-5h-5V45.7h5V35.7h5v-5h10.1v5h-5v10.1h-5v20.1h5v5h15.1L321.7,75.9L321.7,75.9z M341.8,35.7v20.1h-5v10.1h-5v5h-10.1v-5h5V55.8h5V35.7h-5v-5h-15.1v-5h20.1v5h5v5H341.8L341.8,35.7z"/></g></svg>
