<?xml version="1.0" encoding="UTF-8"?><svg id="a" xmlns="http://www.w3.org/2000/svg" viewBox="0 0 169.35 169.35"><defs><style>.b{fill:#6b6b6b;stroke:#6b6b6b;stroke-miterlimit:10;stroke-width:.27px;}</style></defs><rect class="b" x="28.68" y="56.67" width="8" height="8"/><rect class="b" x="36.68" y="48.67" width="8" height="8"/><rect class="b" x="44.68" y="40.67" width="8" height="8"/><rect class="b" x="52.68" y="32.67" width="8" height="8"/><rect class="b" x="60.68" y="40.67" width="8" height="8"/><rect class="b" x="60.68" y="32.67" width="8" height="8"/><rect class="b" x="60.68" y="48.67" width="8" height="8"/><rect class="b" x="68.68" y="48.67" width="8" height="8"/><rect class="b" x="36.68" y="64.67" width="8" height="8"/><rect class="b" x="44.68" y="72.67" width="8" height="8"/><rect class="b" x="52.68" y="80.67" width="8" height="8"/><rect class="b" x="60.68" y="72.67" width="8" height="8"/><rect class="b" x="60.68" y="80.67" width="8" height="8"/><rect class="b" x="60.68" y="64.67" width="8" height="8"/><rect class="b" x="68.68" y="64.67" width="24" height="8"/><rect class="b" x="92.67" y="64.67" width="8" height="8"/><rect class="b" x="132.67" y="64.67" width="8" height="8"/><rect class="b" x="132.67" y="80.67" width="8" height="8"/><rect class="b" x="132.67" y="72.67" width="8" height="8"/><rect class="b" x="132.67" y="88.67" width="8" height="8"/><rect class="b" x="132.67" y="96.71" width="8" height="8"/><rect class="b" x="132.67" y="104.67" width="8" height="8"/><rect class="b" x="52.67" y="128.68" width="8" height="8"/><rect class="b" x="44.67" y="128.68" width="8" height="8"/><rect class="b" x="60.67" y="128.68" width="8" height="8"/><rect class="b" x="60.67" y="112.67" width="8" height="8"/><rect class="b" x="52.67" y="120.67" width="8" height="8"/><rect class="b" x="68.67" y="128.68" width="8" height="8"/><rect class="b" x="76.67" y="128.68" width="8" height="8"/><rect class="b" x="68.67" y="112.67" width="8" height="8"/><rect class="b" x="76.67" y="112.67" width="8" height="8"/><rect class="b" x="84.67" y="128.68" width="8" height="8"/><rect class="b" x="92.67" y="128.68" width="8" height="8"/><rect class="b" x="84.68" y="112.67" width="8" height="8"/><rect class="b" x="92.68" y="112.67" width="8" height="8"/><rect class="b" x="100.68" y="112.67" width="8" height="8"/><rect class="b" x="100.68" y="128.67" width="8" height="8"/><rect class="b" x="108.67" y="128.67" width="8" height="8"/><rect class="b" x="132.67" y="120.68" width="8" height="8"/><rect class="b" x="124.7" y="128.66" width="8" height="8"/><rect class="b" x="116.67" y="128.68" width="8" height="8"/><rect class="b" x="132.67" y="112.67" width="8" height="8"/><rect class="b" x="108.67" y="48.67" width="8" height="8"/><rect class="b" x="116.67" y="48.67" width="8" height="8"/><rect class="b" x="100.67" y="64.67" width="8" height="8"/><rect class="b" x="76.67" y="48.67" width="8" height="8"/><rect class="b" x="84.68" y="48.67" width="8" height="8"/><rect class="b" x="92.68" y="48.67" width="8" height="8"/><rect class="b" x="100.68" y="48.67" width="8" height="8"/><rect class="b" x="108.67" y="64.67" width="8" height="8"/><rect class="b" x="124.67" y="56.67" width="8" height="8"/><rect class="b" x="116.66" y="88.67" width="8" height="8"/><rect class="b" x="116.68" y="72.67" width="8" height="8"/><rect class="b" x="116.68" y="80.67" width="8" height="8"/><rect class="b" x="116.68" y="96.67" width="8" height="8"/><rect class="b" x="116.68" y="104.68" width="8" height="8"/><rect class="b" x="116.67" y="112.67" width="8" height="8"/><rect class="b" x="108.67" y="72.67" width="8" height="8"/><rect class="b" x="108.66" y="112.67" width="8" height="8"/></svg>